<svg width="133" height="47" viewBox="0 0 133 47" fill="none" xmlns="http://www.w3.org/2000/svg">
<path d="M32.1261 25.5211V26.7961H23.2011V11.4711H31.6761V12.7461H25.7511V18.3211H31.1511V19.6461H25.7511V25.5211H32.1261ZM48.1192 14.4961C49.4026 14.4961 50.3526 14.8294 50.9692 15.4961C51.6026 16.1628 51.9192 17.1044 51.9192 18.3211V26.7961H49.4192V18.2461C49.4192 17.4794 49.2442 16.8961 48.8942 16.4961C48.5442 16.0961 48.0359 15.8961 47.3692 15.8961C46.3692 15.8961 45.4442 16.2628 44.5942 16.9961C44.7109 17.4628 44.7692 17.9044 44.7692 18.3211V26.7961H42.2192V18.2461C42.2192 16.6794 41.5192 15.8961 40.1192 15.8961C39.1692 15.8961 38.2859 16.2461 37.4692 16.9461V26.7961H34.9442V14.7961H36.0442L37.0192 16.0211C37.5526 15.5711 38.1526 15.2044 38.8192 14.9211C39.4859 14.6378 40.1776 14.4961 40.8942 14.4961C42.4942 14.4961 43.6026 15.0128 44.2192 16.0461C44.7359 15.5961 45.3276 15.2294 45.9942 14.9461C46.6776 14.6461 47.3859 14.4961 48.1192 14.4961ZM58.2677 27.0961C57.251 27.0961 56.4427 26.8211 55.8427 26.2711C55.2593 25.7044 54.9677 24.9378 54.9677 23.9711C54.9677 22.9378 55.3343 22.1294 56.0677 21.5461C56.8177 20.9461 57.951 20.5128 59.4677 20.2461L62.2427 19.7961V18.5711C62.2427 16.6878 61.526 15.7461 60.0927 15.7461C59.2427 15.7461 58.626 15.9878 58.2427 16.4711C57.8593 16.9544 57.6427 17.6961 57.5927 18.6961L55.4927 18.4711C55.5927 17.1544 55.9927 16.1628 56.6927 15.4961C57.3927 14.8294 58.5427 14.4961 60.1427 14.4961C61.6927 14.4961 62.851 14.8461 63.6177 15.5461C64.3843 16.2294 64.7677 17.2711 64.7677 18.6711V26.7961H63.1677L62.3927 25.0461C61.876 25.7128 61.2593 26.2211 60.5427 26.5711C59.826 26.9211 59.0677 27.0961 58.2677 27.0961ZM59.1677 25.7711C59.7343 25.7711 60.2927 25.6044 60.8427 25.2711C61.4093 24.9378 61.876 24.5461 62.2427 24.0961V20.8211L59.7927 21.2961C58.9593 21.4794 58.326 21.7711 57.8927 22.1711C57.476 22.5711 57.2677 23.1128 57.2677 23.7961C57.2677 24.3961 57.4343 24.8794 57.7677 25.2461C58.1177 25.5961 58.5843 25.7711 59.1677 25.7711ZM69.8612 13.2211C69.4279 13.2211 69.0612 13.0711 68.7612 12.7711C68.4612 12.4544 68.3112 12.0878 68.3112 11.6711C68.3112 11.2378 68.4612 10.8711 68.7612 10.5711C69.0612 10.2544 69.4279 10.0961 69.8612 10.0961C70.2946 10.0961 70.6612 10.2544 70.9612 10.5711C71.2779 10.8711 71.4362 11.2378 71.4362 11.6711C71.4362 12.0878 71.2779 12.4544 70.9612 12.7711C70.6446 13.0711 70.2779 13.2211 69.8612 13.2211ZM71.0612 26.7961H68.5862V14.7961H71.0612V26.7961ZM77.7036 26.7961H75.1786V10.9461L77.7036 10.6211V26.7961ZM98.6036 21.7211C98.6036 23.0044 98.3286 24.0544 97.7786 24.8711C97.2453 25.6711 96.562 26.2461 95.7286 26.5961C94.912 26.9294 94.0453 27.0961 93.1286 27.0961C91.4786 27.0961 90.1036 26.6878 89.0036 25.8711C87.9203 25.0378 87.3786 23.6544 87.3786 21.7211V11.4711H89.9286V21.7211C89.9286 23.1544 90.2286 24.2044 90.8286 24.8711C91.4453 25.5211 92.2703 25.8461 93.3036 25.8461C94.3703 25.8461 95.2703 25.5128 96.0036 24.8461C96.7536 24.1628 97.1286 23.1211 97.1286 21.7211V11.4711H98.6036V21.7211ZM107.226 19.8961C108.459 20.2294 109.351 20.6544 109.901 21.1711C110.468 21.6878 110.751 22.4378 110.751 23.4211C110.751 24.5544 110.351 25.4544 109.551 26.1211C108.768 26.7711 107.651 27.0961 106.201 27.0961C104.634 27.0961 103.468 26.7794 102.701 26.1461C101.934 25.4961 101.468 24.5628 101.301 23.3461L103.376 23.0961C103.459 23.9628 103.734 24.6378 104.201 25.1211C104.668 25.6044 105.334 25.8461 106.201 25.8461C106.901 25.8461 107.476 25.6544 107.926 25.2711C108.376 24.8878 108.601 24.4461 108.601 23.9461C108.601 23.4461 108.401 23.0461 108.001 22.7461C107.601 22.4461 106.943 22.1794 106.026 21.9461L104.826 21.5961C103.759 21.3128 102.943 20.8961 102.376 20.3461C101.809 19.7961 101.526 19.0211 101.526 18.0211C101.526 16.9378 101.926 16.0794 102.726 15.4461C103.526 14.8128 104.634 14.4961 106.051 14.4961C107.534 14.4961 108.634 14.8128 109.351 15.4461C110.068 16.0628 110.501 16.9711 110.651 18.1711L108.576 18.3461C108.493 17.5294 108.234 16.8961 107.801 16.4461C107.384 15.9794 106.801 15.7461 106.051 15.7461C105.268 15.7461 104.676 15.9044 104.276 16.2211C103.876 16.5378 103.676 16.9544 103.676 17.4711C103.676 18.0378 103.868 18.4711 104.251 18.7711C104.651 19.0711 105.276 19.3378 106.126 19.5711L107.226 19.8961Z" fill="#001E30"/>
<g filter="url(#filter0_d_817_1274)">
<rect x="4.5" y="1.19904" width="123.879" height="36.3786" rx="18.1893" stroke="#001E30" shape-rendering="crispEdges"/>
</g>
<defs>
<filter id="filter0_d_817_1274" x="0" y="0.699036" width="132.879" height="45.3786" filterUnits="userSpaceOnUse" color-interpolation-filters="sRGB">
<feFlood flood-opacity="0" result="BackgroundImageFix"/>
<feColorMatrix in="SourceAlpha" type="matrix" values="0 0 0 0 0 0 0 0 0 0 0 0 0 0 0 0 0 0 127 0" result="hardAlpha"/>
<feOffset dy="4"/>
<feGaussianBlur stdDeviation="2"/>
<feComposite in2="hardAlpha" operator="out"/>
<feColorMatrix type="matrix" values="0 0 0 0 0 0 0 0 0 0 0 0 0 0 0 0 0 0 0.25 0"/>
<feBlend mode="normal" in2="BackgroundImageFix" result="effect1_dropShadow_817_1274"/>
<feBlend mode="normal" in="SourceGraphic" in2="effect1_dropShadow_817_1274" result="shape"/>
</filter>
</defs>
</svg>
