<svg width="42" height="42" viewBox="0 0 42 42" fill="none" xmlns="http://www.w3.org/2000/svg">
<path d="M41.0487 21.2378C41.0487 30.9621 34.069 39.0571 24.846 40.7852V27.6313H29.0966H29.5258L29.5909 27.2071L30.4948 21.3136L30.5831 20.7378H30.0006H24.846V17.415C24.846 16.6807 25.0266 16.0174 25.4359 15.5439C25.8334 15.0841 26.511 14.7293 27.6687 14.7293H30.2395H30.7395V14.2293V9.2119V8.78998L30.3236 8.71902L30.2395 9.2119C30.3236 8.71902 30.3236 8.71901 30.3235 8.719L30.3233 8.71898L30.3229 8.71889L30.3213 8.71863L30.3156 8.71767L30.2943 8.71412L30.2137 8.70104C30.1437 8.68986 30.0418 8.67399 29.9128 8.65501C29.6549 8.61705 29.2883 8.56656 28.8512 8.51609C27.9791 8.41541 26.8172 8.31369 25.6756 8.31369C23.2461 8.31369 21.1821 9.05181 19.725 10.5103C18.2674 11.9693 17.4746 14.0913 17.4746 16.746V20.7378H12.7979H12.2979V21.2378V27.1313V27.6313H12.7979H17.4746V40.7852C8.25168 39.0571 1.27197 30.9621 1.27197 21.2378C1.27197 10.2538 10.1763 1.34949 21.1603 1.34949C32.1444 1.34949 41.0487 10.2538 41.0487 21.2378Z" fill="#001E30" stroke="black"/>
</svg>
