<svg width="42" height="42" viewBox="0 0 42 42" fill="none" xmlns="http://www.w3.org/2000/svg">
<path d="M20.9272 4.52098C26.3747 4.52098 27.0198 4.54487 29.1622 4.64045C31.1532 4.72805 32.2284 5.06255 32.9451 5.3413C33.8929 5.70765 34.5778 6.15364 35.2866 6.86246C36.0034 7.57924 36.4414 8.25619 36.8078 9.20393C37.0865 9.92071 37.421 11.0038 37.5086 12.9869C37.6042 15.1373 37.6281 15.7824 37.6281 21.2219C37.6281 26.6694 37.6042 27.3145 37.5086 29.4569C37.421 31.4479 37.0865 32.5231 36.8078 33.2399C36.4414 34.1876 35.9954 34.8725 35.2866 35.5814C34.5698 36.2981 33.8929 36.7362 32.9451 37.1025C32.2284 37.3813 31.1452 37.7158 29.1622 37.8034C27.0118 37.8989 26.3667 37.9228 20.9272 37.9228C15.4797 37.9228 14.8346 37.8989 12.6922 37.8034C10.7011 37.7158 9.62597 37.3813 8.90919 37.1025C7.96145 36.7362 7.27653 36.2902 6.56772 35.5814C5.85094 34.8646 5.41291 34.1876 5.04656 33.2399C4.76781 32.5231 4.43331 31.44 4.34571 29.4569C4.25014 27.3066 4.22624 26.6615 4.22624 21.2219C4.22624 15.7744 4.25014 15.1293 4.34571 12.9869C4.43331 10.9959 4.76781 9.92071 5.04656 9.20393C5.41291 8.25619 5.8589 7.57127 6.56772 6.86246C7.28449 6.14568 7.96145 5.70765 8.90919 5.3413C9.62597 5.06255 10.7091 4.72805 12.6922 4.64045C14.8346 4.54487 15.4797 4.52098 20.9272 4.52098ZM20.9272 0.849487C15.3921 0.849487 14.6992 0.87338 12.5249 0.96895C10.3587 1.06452 8.86937 1.41495 7.57917 1.91669C6.23322 2.44233 5.09434 3.13521 3.96342 4.27409C2.82454 5.40501 2.13166 6.54389 1.60602 7.88188C1.10428 9.18004 0.753852 10.6614 0.658281 12.8276C0.562711 15.0098 0.538818 15.7027 0.538818 21.2378C0.538818 26.773 0.562711 27.4658 0.658281 29.6401C0.753852 31.8063 1.10428 33.2956 1.60602 34.5858C2.13166 35.9318 2.82454 37.0707 3.96342 38.2016C5.09434 39.3325 6.23322 40.0333 7.57121 40.551C8.86937 41.0528 10.3507 41.4032 12.517 41.4988C14.6912 41.5943 15.3841 41.6182 20.9192 41.6182C26.4543 41.6182 27.1472 41.5943 29.3214 41.4988C31.4877 41.4032 32.977 41.0528 34.2672 40.551C35.6052 40.0333 36.7441 39.3325 37.875 38.2016C39.0059 37.0707 39.7067 35.9318 40.2244 34.5938C40.7262 33.2956 41.0766 31.8143 41.1722 29.648C41.2677 27.4738 41.2916 26.7809 41.2916 21.2458C41.2916 15.7107 41.2677 15.0178 41.1722 12.8436C41.0766 10.6773 40.7262 9.188 40.2244 7.8978C39.7227 6.54389 39.0298 5.40501 37.8909 4.27409C36.76 3.14318 35.6211 2.44233 34.2831 1.92465C32.985 1.42291 31.5036 1.07248 29.3374 0.976914C27.1552 0.87338 26.4623 0.849487 20.9272 0.849487Z" fill="#001E30"/>
<path d="M20.9273 10.7649C15.1453 10.7649 10.4543 15.4558 10.4543 21.2378C10.4543 27.0199 15.1453 31.7108 20.9273 31.7108C26.7093 31.7108 31.4002 27.0199 31.4002 21.2378C31.4002 15.4558 26.7093 10.7649 20.9273 10.7649ZM20.9273 28.0313C17.1761 28.0313 14.1338 24.989 14.1338 21.2378C14.1338 17.4867 17.1761 14.4444 20.9273 14.4444C24.6784 14.4444 27.7207 17.4867 27.7207 21.2378C27.7207 24.989 24.6784 28.0313 20.9273 28.0313Z" fill="#001E30"/>
<path d="M34.2592 10.3507C34.2592 11.7046 33.1601 12.7957 31.8142 12.7957C30.4602 12.7957 29.3691 11.6966 29.3691 10.3507C29.3691 8.99677 30.4682 7.90567 31.8142 7.90567C33.1601 7.90567 34.2592 9.00473 34.2592 10.3507Z" fill="#001E30"/>
</svg>
