<svg width="42" height="41" viewBox="0 0 42 41" fill="none" xmlns="http://www.w3.org/2000/svg">
<path d="M38.0642 0H3.31638C1.65186 0 0.305908 1.31409 0.305908 2.93879V37.8299C0.305908 39.4546 1.65186 40.7767 3.31638 40.7767H38.0642C39.7287 40.7767 41.0826 39.4546 41.0826 37.8379V2.93879C41.0826 1.31409 39.7287 0 38.0642 0ZM12.4035 34.7478H6.35074V15.2833H12.4035V34.7478ZM9.37713 12.6312C7.43387 12.6312 5.86492 11.0623 5.86492 9.12697C5.86492 7.19167 7.43387 5.62273 9.37713 5.62273C11.3124 5.62273 12.8814 7.19167 12.8814 9.12697C12.8814 11.0543 11.3124 12.6312 9.37713 12.6312ZM35.0537 34.7478H29.0089V25.2863C29.0089 23.0325 28.9691 20.1255 25.863 20.1255C22.7172 20.1255 22.2393 22.5865 22.2393 25.1271V34.7478H16.2024V15.2833H22.0004V17.9433H22.08C22.8844 16.4142 24.8595 14.7975 27.7983 14.7975C33.9228 14.7975 35.0537 18.8274 35.0537 24.0678V34.7478Z" fill="#001E30"/>
</svg>
