<svg width="41" height="30" viewBox="0 0 41 30" fill="none" xmlns="http://www.w3.org/2000/svg">
<path d="M40.5934 6.98429C40.5934 6.98429 40.1952 4.17293 38.9687 2.93848C37.4157 1.31379 35.6795 1.30582 34.8831 1.21025C29.1807 0.796112 20.6192 0.796112 20.6192 0.796112H20.6033C20.6033 0.796112 12.0418 0.796112 6.33941 1.21025C5.54298 1.30582 3.80679 1.31379 2.25377 2.93848C1.02728 4.17293 0.637039 6.98429 0.637039 6.98429C0.637039 6.98429 0.2229 10.2894 0.2229 13.5866V16.6767C0.2229 19.9739 0.629074 23.279 0.629074 23.279C0.629074 23.279 1.02728 26.0904 2.24581 27.3249C3.79883 28.9496 5.83766 28.8938 6.74558 29.069C10.0109 29.3796 20.6112 29.4752 20.6112 29.4752C20.6112 29.4752 29.1807 29.4593 34.8831 29.0531C35.6795 28.9575 37.4157 28.9496 38.9687 27.3249C40.1952 26.0904 40.5934 23.279 40.5934 23.279C40.5934 23.279 40.9996 19.9819 40.9996 16.6767V13.5866C40.9996 10.2894 40.5934 6.98429 40.5934 6.98429ZM16.3982 20.4279V8.96738L27.4127 14.7175L16.3982 20.4279Z" fill="#001E30"/>
</svg>
